<?xml version="1.0" standalone="no"?><!DOCTYPE svg PUBLIC "-//W3C//DTD SVG 1.1//EN" "http://www.w3.org/Graphics/SVG/1.1/DTD/svg11.dtd"><svg t="1716464998065" class="icon" viewBox="0 0 1024 1024" version="1.1" xmlns="http://www.w3.org/2000/svg" p-id="7540" xmlns:xlink="http://www.w3.org/1999/xlink" width="200" height="200"><path d="M258.56 276.48a230.144 230.144 0 0 0-130.194286 113.249524 12.190476 12.190476 0 0 0 9.508572 17.67619l71.192381 8.045715 63.75619-55.466667 1.828572-71.68a12.141714 12.141714 0 0 0-16.091429-11.824762" fill="#B1BCA5" p-id="7541"></path><path d="M292.937143 288.768l-1.828572 71.68a18.285714 18.285714 0 0 1-6.278095 13.336381l-63.75619 55.466667a18.285714 18.285714 0 0 1-14.055619 4.376381l-71.216762-8.045715c-21.211429-2.438095-33.475048-25.283048-23.734857-44.153904A248.429714 248.429714 0 0 1 252.586667 259.193905c20.126476-6.985143 40.96 8.448 40.350476 29.574095z m-144.103619 101.473524l54.296381 6.131809 51.614476-44.897523 1.401905-54.637715a211.931429 211.931429 0 0 0-107.312762 93.403429z" fill="#513233" p-id="7542"></path><path d="M670.841905 238.811429h-134.095238a24.380952 24.380952 0 0 0-24.380953 24.380952v54.369524h182.857143v-54.369524c0-13.531429-10.849524-24.380952-24.380952-24.380952" fill="#B1BCA5" p-id="7543"></path><path d="M670.841905 220.525714c23.625143 0 42.666667 19.041524 42.666666 42.666667v54.369524a18.285714 18.285714 0 0 1-18.285714 18.285714h-182.857143a18.285714 18.285714 0 0 1-18.285714-18.285714v-54.369524a42.666667 42.666667 0 0 1 42.666667-42.666667h134.095238z m6.095238 42.666667c0-3.437714-2.657524-6.095238-6.095238-6.095238h-134.095238a6.095238 6.095238 0 0 0-6.095238 6.095238v36.083809h146.285714v-36.083809z" fill="#513233" p-id="7544"></path><path d="M773.607619 404.23619H434.102857l-10.971428 89.721905-14.628572 118.979048-13.043809 107.032381-6.826667 55.100952c-1.706667 14.506667 9.630476 27.306667 24.259048 27.306667H794.819048c14.628571 0 25.965714-12.8 24.259047-27.306667l-10.361905-83.870476-35.108571-286.96381" fill="#B1BCA5" p-id="7545"></path><path d="M773.607619 385.950476a18.285714 18.285714 0 0 1 18.151619 16.067048l35.108572 286.939428 10.361904 83.980191A42.73981 42.73981 0 0 1 794.819048 820.662857H412.891429a42.76419 42.76419 0 0 1-42.410667-47.835428l6.826667-55.064381 13.043809-107.056762 14.628572-118.979048 10.971428-89.721905a18.285714 18.285714 0 0 1 18.151619-16.054857h339.504762z m-323.315809 36.571429l-9.020953 73.667047L426.666667 615.143619l-13.04381 107.068952-6.826667 54.991239c-0.426667 3.657143 2.438095 6.887619 6.107429 6.887619H794.819048c3.657143 0 6.534095-3.230476 6.107428-6.777905l-10.361905-83.894857-33.145904-270.896762H450.29181z" fill="#513233" p-id="7546"></path><path d="M755.456 406.454857a18.285714 18.285714 0 0 1 18.151619-20.504381h84.236191c37.034667 0 67.047619 30.012952 67.047619 67.047619v151.771429c0 19.21219-10.191238 37.12-25.721905 46.396952l-80.091429 55.100953a18.285714 18.285714 0 0 1-28.513524-12.848762l-35.108571-286.96381z m67.754667 252.586667l56.198095-38.619429a18.407619 18.407619 0 0 0 8.911238-15.652571V452.998095c0-16.847238-13.628952-30.47619-30.47619-30.47619h-63.573334l28.940191 236.531809z" fill="#513233" p-id="7547"></path><path d="M423.131429 493.958095l-27.672381 226.011429v-0.121905L209.066667 415.451429l63.75619-55.466667 150.308572 133.973333" fill="#CBD4D1" p-id="7548"></path><path d="M272.676571 384.353524l-39.936 34.742857L383.695238 665.6l20.114286-164.376381-131.132953-116.882286z m-79.201523 40.643047a18.285714 18.285714 0 0 1 3.584-23.344761l63.75619-55.466667a18.285714 18.285714 0 0 1 24.173714 0.146286l150.308572 133.973333a18.285714 18.285714 0 0 1 5.973333 15.872l-27.672381 226.011428c-2.462476 20.187429-29.17181 20.870095-35.218286 4.790858L193.475048 424.996571z" fill="#513233" p-id="7549"></path><path d="M786.651429 404.23619l-6.095239-64.609523a24.271238 24.271238 0 0 0-24.259047-22.064762H451.413333c-12.55619 0-23.161905 9.508571-24.259047 22.064762l-6.217143 64.609523h365.714286" fill="#CBD4D1" p-id="7550"></path><path d="M804.85181 402.529524a18.285714 18.285714 0 0 1-18.200381 19.992381h-365.714286a18.285714 18.285714 0 0 1-18.200381-20.041143l6.204952-64.451048a42.556952 42.556952 0 0 1 42.471619-38.753524h304.88381c22.040381 0 40.557714 16.761905 42.459428 38.64381l6.095239 64.609524z m-42.508191-61.318095a5.985524 5.985524 0 0 0-6.046476-5.36381H451.413333a6.022095 6.022095 0 0 0-6.058666 5.534476l-4.291048 44.568381h325.485714l-4.205714-44.739047z" fill="#513233" p-id="7551"></path></svg>