<?xml version="1.0" standalone="no"?><!DOCTYPE svg PUBLIC "-//W3C//DTD SVG 1.1//EN" "http://www.w3.org/Graphics/SVG/1.1/DTD/svg11.dtd"><svg t="1716469809932" class="icon" viewBox="0 0 1024 1024" version="1.1" xmlns="http://www.w3.org/2000/svg" p-id="38341" xmlns:xlink="http://www.w3.org/1999/xlink" width="200" height="200"><path d="M631.757489 561.53313l-16.439103-10.896646V151.533632c0-60.866009-49.340269-110.206278-110.206278-110.206278S394.90583 90.667623 394.90583 151.533632v399.102852l-16.439104 10.896646C314.643516 603.829381 275.515695 675.105291 275.515695 753.076233c0 126.801507 102.794906 229.596413 229.596413 229.596413s229.596413-102.794906 229.596412-229.596413c0-77.975534-39.132413-149.246852-102.951031-191.543103zM771.443946 753.076233c0 147.093238-119.238601 266.331839-266.331838 266.331839s-266.331839-119.238601-266.331839-266.331839c0-92.77991 47.443803-174.479498 119.390135-222.162081V151.533632c0-81.153148 65.788556-146.941704 146.941704-146.941704 81.153148 0 146.941704 65.788556 146.941704 146.941704v379.38052c71.946332 47.682583 119.390135 129.38217 119.390134 222.162081z m-335.210762-170.323803V243.372197h137.757847v339.380233c67.317668 27.24391 114.798206 93.239103 114.798207 170.323803 0 101.440287-82.236843 183.67713-183.67713 183.67713s-183.67713-82.236843-183.67713-183.67713c0-77.0847 47.480538-143.079892 114.798206-170.323803zM716.340807 160.717489h128.573991a18.367713 18.367713 0 1 1 0 36.735426h-128.573991a18.367713 18.367713 0 1 1 0-36.735426z m0 110.206278h128.573991a18.367713 18.367713 0 1 1 0 36.735426h-128.573991a18.367713 18.367713 0 1 1 0-36.735426z m0 110.206278h128.573991a18.367713 18.367713 0 1 1 0 36.735426h-128.573991a18.367713 18.367713 0 1 1 0-36.735426z" fill="#47B30F" p-id="38342"></path></svg>