<?xml version="1.0" standalone="no"?><!DOCTYPE svg PUBLIC "-//W3C//DTD SVG 1.1//EN" "http://www.w3.org/Graphics/SVG/1.1/DTD/svg11.dtd"><svg t="1716996268081" class="icon" viewBox="0 0 1024 1024" version="1.1" xmlns="http://www.w3.org/2000/svg" p-id="12821" xmlns:xlink="http://www.w3.org/1999/xlink" width="200" height="200"><path d="M51.2 1008.02559996h913.7664v-91.2384H51.2v91.1872z m11.4176-159.5904h157.9008V506.67519996H62.6176v341.76z m248.1152 0h157.9008V335.76959996H310.784v512.6656z m236.9024 0.1024h169.3184V574.97599996H547.6352v273.5104z m259.584-0.1024h157.8496V256.10239996h-157.9008v592.3328z" fill="#2c2c2c" p-id="12822"></path><path d="M898.7648 0c-40.2432 0-73.1136 32.9728-73.1136 73.8304 0 21.504 9.216 40.8576 23.7568 54.272l-179.1488 279.04a70.912 70.912 0 0 0-34.4064-8.704h-0.2048c-15.104 0-29.0816 4.5568-40.6528 12.4416L438.7328 229.0176c11.8272-13.1072 19.1488-30.4128 19.1488-49.6128 0-40.6528-32.6656-73.8304-73.1136-73.8304-40.2432 0-73.1136 32.9728-73.1136 73.8304 0 13.312 3.584 25.8048 9.728 36.7104L179.456 345.088a72.192 72.192 0 0 0-50.432-20.48c-40.2432 0-73.0624 32.9216-73.0624 73.7792 0 40.6528 32.6144 73.8304 73.0624 73.8304 40.2944 0 73.1136-32.9728 73.1136-73.8304 0-12.288-2.9696-23.6544-8.1408-33.8944l143.0528-129.28a71.68 71.68 0 0 0 47.8208 18.2272c12.5952 0 24.5248-3.2256 34.8672-8.8576l157.7984 183.1424c-9.216 12.1856-14.7968 27.648-14.7968 44.3904 0 40.6528 32.6656 73.8304 73.1136 73.8304 40.2432 0 73.1136-32.9728 73.1136-73.8304 0-19.3024-7.3216-36.8128-19.3536-49.8176l180.4288-280.7296c8.5504 3.7376 18.5856 6.0416 28.928 6.0416 40.2432 0 73.1136-32.9216 73.1136-73.7792A73.8816 73.8816 0 0 0 898.7648 0z" fill="#2c2c2c" p-id="12823"></path></svg>