<?xml version="1.0" standalone="no"?><!DOCTYPE svg PUBLIC "-//W3C//DTD SVG 1.1//EN" "http://www.w3.org/Graphics/SVG/1.1/DTD/svg11.dtd"><svg t="1716471591993" class="icon" viewBox="0 0 1050 1024" version="1.1" xmlns="http://www.w3.org/2000/svg" p-id="51143" xmlns:xlink="http://www.w3.org/1999/xlink" width="205.078125" height="200"><path d="M713.676307 4.814991a32.451766 32.451766 0 0 1 49.360292 30.193796V717.598613h99.718293c16.619715 0.052511 29.931241 1.470307 29.93124 32.556788 0 32.530533-113.397394 159.239453-129.649533 176.804365-7.876642 10.187124-19.534073 16.750993-32.294233 18.273811a32.478022 32.478022 0 0 1-32.504278-32.556789V35.008787a32.556788 32.556788 0 0 1 15.438219-30.193796zM243.388248 2.451999a146.164226 146.164226 0 0 1 146.085461 146.295504v357.652073a240.185081 240.185081 0 0 1 97.329043 194.920643c0 134.611818-108.960219 243.72957-243.388248 243.729569-134.428029 0-243.388248-109.117752-243.388249-243.729569a240.185081 240.185081 0 0 1 97.302789-194.920643V148.747503A146.164226 146.164226 0 0 1 243.388248 2.478254z m0.105022 68.789343a81.313204 81.313204 0 0 0-81.155671 77.506161v392.781898a178.904803 178.904803 0 0 0-93.522 201.484511 178.615993 178.615993 0 0 0 174.598905 137.132343V879.59489a178.615993 178.615993 0 0 0 173.627453-136.97481 178.904803 178.904803 0 0 0-92.393015-201.116935V148.747503a81.313204 81.313204 0 0 0-81.155672-77.506161z m-1.575328 44.975628c17.958745 0 32.530533 14.571788 32.530533 32.556788v443.743774a113.738715 113.738715 0 0 1 79.869153 125.422402 113.633694 113.633694 0 0 1-112.373431 97.276533 113.633694 113.633694 0 0 1-112.37343-97.276533 113.738715 113.738715 0 0 1 79.869153-125.422402V148.747503c0-17.958745 14.545533-32.556788 32.504277-32.556789z m323.572467 325.095285a32.504277 32.504277 0 0 1 28.145869 48.835182c-5.80246 10.055847-16.540949 16.252139-28.145869 16.252139h-112.478452a32.530533 32.530533 0 0 1 0-65.113577z m-47.653686-130.01711a32.504277 32.504277 0 0 1 28.145869 48.835183c-5.80246 10.055847-16.540949 16.278394-28.145869 16.278394h-64.824766a32.530533 32.530533 0 0 1 0-65.113577z m-14.256722-129.990854a32.504277 32.504277 0 0 1 28.145868 48.835182c-5.776204 10.055847-16.540949 16.252139-28.145868 16.252139h-50.568044a32.530533 32.530533 0 0 1 0-65.113577zM449.388701 51.23467l3.623256 0.052511h32.504277a32.530533 32.530533 0 0 1 0 64.929789h-32.504277a32.478022 32.478022 0 0 1-30.16754-49.439059 32.478022 32.478022 0 0 1 30.16754-15.49073z" fill="#02D2C5" fill-opacity=".1" p-id="51144"></path><path d="M871.209154 83.581415a32.451766 32.451766 0 0 1 49.360292 30.193796V796.365036h99.718292c16.619715 0.052511 29.931241 1.470307 29.931241 32.556789 0 32.530533-113.397394 159.239453-129.649533 176.804365-7.876642 10.187124-19.534073 16.750993-32.294233 18.27381a32.478022 32.478022 0 0 1-32.504278-32.556788V113.775211a32.556788 32.556788 0 0 1 15.438219-30.193796z m-470.288059-2.362993a146.164226 146.164226 0 0 1 146.08546 146.295504v357.652073a240.185081 240.185081 0 0 1 97.329044 194.920643c0 134.611818-108.960219 243.72957-243.388248 243.72957-134.428029 0-243.388248-109.117752-243.388249-243.72957a240.185081 240.185081 0 0 1 97.302789-194.920643V227.513926a146.164226 146.164226 0 0 1 146.059204-146.269248z m0.105022 68.789343a81.313204 81.313204 0 0 0-81.155671 77.506161v392.781898a178.904803 178.904803 0 0 0-93.522 201.484512 178.615993 178.615993 0 0 0 174.598905 137.132343V958.361314a178.615993 178.615993 0 0 0 173.627453-136.974811 178.904803 178.904803 0 0 0-92.393015-201.116934V227.513926a81.313204 81.313204 0 0 0-81.155672-77.506161z m-1.575328 44.975628c17.958745 0 32.530533 14.571788 32.530533 32.556789v443.743774a113.738715 113.738715 0 0 1 79.869153 125.422401 113.633694 113.633694 0 0 1-112.373431 97.276533 113.633694 113.633694 0 0 1-112.373431-97.276533 113.738715 113.738715 0 0 1 79.869154-125.422401V227.513926c0-17.958745 14.545533-32.556788 32.504277-32.556788z m323.572467 325.095285a32.504277 32.504277 0 0 1 28.145869 48.835183c-5.80246 10.055847-16.540949 16.252139-28.145869 16.252138h-112.478452a32.530533 32.530533 0 0 1 0-65.113576z m-47.653686-130.017109a32.504277 32.504277 0 0 1 28.145869 48.835182c-5.80246 10.055847-16.540949 16.278394-28.145869 16.278394h-64.824766a32.530533 32.530533 0 0 1 0-65.113576z m-14.256722-129.990855a32.504277 32.504277 0 0 1 28.145868 48.835183c-5.776204 10.055847-16.540949 16.252139-28.145868 16.252139h-50.568044a32.530533 32.530533 0 0 1 0-65.113577zM606.921548 130.001094l3.623256 0.052511h32.504277a32.530533 32.530533 0 0 1 0 64.929788h-32.504277a32.478022 32.478022 0 0 1-30.167541-49.439058 32.478022 32.478022 0 0 1 30.167541-15.49073z" fill="#02D2C5" p-id="51145"></path></svg>