<?xml version="1.0" standalone="no"?><!DOCTYPE svg PUBLIC "-//W3C//DTD SVG 1.1//EN" "http://www.w3.org/Graphics/SVG/1.1/DTD/svg11.dtd"><svg t="1716466226705" class="icon" viewBox="0 0 1024 1024" version="1.1" xmlns="http://www.w3.org/2000/svg" p-id="30437" xmlns:xlink="http://www.w3.org/1999/xlink" width="200" height="200"><path d="M831.953455 684.823273c19.223273 12.8 38.4 31.976727 51.2 51.2 12.8 19.176727 19.223273 44.776727 19.223272 70.376727 0 19.223273-6.423273 38.4-12.8 57.623273-6.423273 19.176727-19.223273 31.976727-32.023272 44.776727-12.8 12.8-31.976727 25.6-44.776728 32.023273-19.223273 6.376727-38.4 12.753455-57.623272 12.753454-25.6 0-51.2-6.376727-70.376728-19.176727a194.792727 194.792727 0 0 1-51.2-51.2l-6.423272-6.423273-6.376728-6.376727c-12.8-12.8-19.223273-32.023273-19.223272-51.2 0-19.223273-6.376727-38.4 0-64V691.2c0-19.176727 0-38.4-6.376728-57.576727a65.536 65.536 0 0 1-32.023272-38.4c-6.376727-19.223273-19.176727-25.6-31.976728-44.823273l-6.423272-6.376727s0-6.423273-6.376728-6.423273c-6.423273 19.176727-19.223273 32.023273-32.023272 44.776727-12.8 12.8-19.176727 32.023273-31.976728 44.823273-6.423273 6.423273-6.423273 6.423273-6.423272 12.8s-6.376727 6.376727-6.376728 12.8c-6.423273 12.8-6.423273 19.176727-6.423272 32.023273 0 6.376727 0 19.176727 6.423272 25.6 0 6.376727 6.376727 19.176727 6.376728 25.6 0 6.376727 6.423273 19.176727 6.423272 31.976727 0 12.8 0 25.6-6.423272 38.4-6.376727 12.8-12.8 32.023273-19.176728 57.623273-12.8 25.6-25.6 51.2-51.2 70.376727-38.4 12.8-64 25.6-96.023272 25.6-19.176727 0-38.4-6.376727-57.576728-12.8-19.223273-6.423273-32.023273-19.223273-44.823272-32.023273a194.466909 194.466909 0 0 1-31.976728-44.776727c-6.423273-12.8-12.8-38.4-12.8-64s6.376727-44.776727 12.8-64c6.376727-19.176727 19.176727-38.4 38.4-51.2a99.514182 99.514182 0 0 1 51.2-38.4c19.176727-6.423273 31.976727-19.176727 51.2-32.023273 19.176727-12.753455 31.976727-12.753455 44.776728-25.6 12.8-12.8 32.023273-19.176727 38.4-31.976727l6.423272-6.376727 6.376728-6.423273c0-6.376727 6.423273-12.8 12.8-12.8 6.423273-12.8 19.223273-25.6 25.6-38.4 6.423273-12.8 19.223273-25.6 25.6-38.4-12.8-19.176727-25.6-38.4-38.4-44.823273-12.8-6.376727-19.176727-25.6-31.976728-38.353454-19.223273-32.023273-38.4-57.623273-57.623272-89.6-19.176727-32.023273-25.6-64-31.976728-89.6-6.423273-32.023273-12.8-57.623273-12.8-76.8 0-19.223273 6.376727-38.4 12.8-51.2 0 0 6.376727-6.423273 19.176728-6.423273 6.423273 0 12.8 0 19.223272 6.376727l38.4 57.623273c12.8 19.223273 31.976727 44.776727 44.776728 70.423273 12.8 25.6 38.4 57.576727 51.2 83.176727 19.223273 25.6 38.4 57.576727 57.623272 83.223273 6.376727-6.423273 6.376727-12.846545 12.8-12.846546 6.376727-6.376727 6.376727-12.8 12.8-12.8 12.8-31.976727 31.976727-57.576727 44.776728-83.176727 12.8-25.6 32.023273-51.2 44.823272-76.8 12.8-25.6 25.6-44.776727 38.4-64 12.8-19.223273 19.176727-32.023273 25.6-44.823273 0-6.376727 6.376727-6.376727 19.176728-6.376727 12.8 0 19.223273 0 25.6 12.8 6.423273 6.423273 6.423273 12.8 12.8 32.023273V179.2c-6.376727 25.6-12.8 64-31.976728 95.976727-19.223273 32.023273-38.4 76.8-70.423272 115.2l-38.4 38.4c-6.376727 12.846545-19.176727 25.6-25.6 38.4 12.8 19.223273 25.6 44.823273 38.4 64 12.8 19.223273 25.6 38.4 38.4 51.2 12.8 19.223273 32.023273 32.023273 44.823272 38.4 19.176727 6.423273 31.976727 19.223273 44.776728 25.6l38.4 19.223273c12.8 6.376727 25.6 6.376727 38.4 19.176727zM281.6 876.776727c19.223273 0 38.4-6.376727 51.2-19.176727 12.8-12.8 19.223273-32.023273 19.223273-51.2 0-19.176727-6.423273-38.4-19.223273-57.623273-12.8-12.753455-31.976727-19.176727-51.2-19.176727-19.176727 0-38.4 6.376727-51.2 19.176727-12.8 12.846545-19.176727 32.023273-19.176727 51.2 0 19.223273 6.376727 38.4 19.176727 51.2 12.8 19.223273 32.023273 25.6 51.2 25.6z m467.223273 0c19.176727 0 38.4-6.376727 51.2-19.176727 12.8-12.8 19.176727-32.023273 19.176727-51.2 0-19.176727-6.376727-38.4-19.176727-51.2-12.8-12.8-32.023273-19.223273-51.2-19.223273-19.223273 0-38.4 6.423273-51.2 19.223273-12.8 12.8-19.223273 32.023273-19.223273 51.2 0 12.8 0 19.223273 6.423273 25.6 6.376727 6.376727 6.376727 19.223273 12.8 25.6 6.376727 6.376727 12.8 12.8 25.6 12.8 6.376727 6.376727 12.8 6.376727 25.6 6.376727z" fill="#15D16B" p-id="30438"></path></svg>