<?xml version="1.0" standalone="no"?><!DOCTYPE svg PUBLIC "-//W3C//DTD SVG 1.1//EN" "http://www.w3.org/Graphics/SVG/1.1/DTD/svg11.dtd"><svg t="1716468415072" class="icon" viewBox="0 0 1024 1024" version="1.1" xmlns="http://www.w3.org/2000/svg" p-id="48387" xmlns:xlink="http://www.w3.org/1999/xlink" width="200" height="200"><path d="M887.466667 0v100.010667h-187.050667v68.266666H887.466667V341.333333h-187.050667v68.266667H887.466667v173.056h-187.050667v68.266667H887.466667v275.797333c-26.965333-29.013333-50.858667-54.613333-74.069334-76.117333a68.266667 68.266667 0 0 0-97.962666 2.730666c-8.874667 9.898667-18.773333 21.504-29.354667 34.133334s-29.696 34.133333-47.445333 53.248l-8.533334-9.557334c-29.354667-31.061333-54.272-58.026667-78.848-80.896a68.266667 68.266667 0 0 0-97.962666 2.730667c-9.216 9.557333-18.773333 21.162667-29.354667 34.133333a750.933333 750.933333 0 0 1-53.248 59.392A767.658667 767.658667 0 0 1 316.074667 887.466667c-10.581333-12.629333-20.138667-24.234667-29.354667-34.133334a70.314667 70.314667 0 0 0-94.208-5.461333 433.152 433.152 0 0 0-119.125333 122.538667 34.133333 34.133333 0 0 0 10.922666 46.762666 34.133333 34.133333 0 0 0 46.762667-10.581333 375.466667 375.466667 0 0 1 100.352-104.448c3.413333-2.048 5.802667-2.730667 5.461333-3.072 8.533333 8.874667 17.408 19.456 26.965334 30.72a650.581333 650.581333 0 0 0 80.554666 84.992 34.133333 34.133333 0 0 0 22.186667 8.192h3.072a34.133333 34.133333 0 0 0 25.6-7.509333 646.144 646.144 0 0 0 80.213333-84.992 275.797333 275.797333 0 0 1 28.672-30.378667c22.528 21.162667 47.104 47.445333 75.434667 77.482667 8.533333 9.557333 17.749333 19.456 27.306667 29.354666a21.845333 21.845333 0 0 0 2.730666 4.778667 34.133333 34.133333 0 0 0 25.6 11.605333h2.048a34.133333 34.133333 0 0 0 23.552-9.557333 24.234667 24.234667 0 0 0 3.413334-4.778667 756.736 756.736 0 0 0 73.728-78.506666 223.232 223.232 0 0 1 28.330666-30.378667c22.869333 21.162667 47.104 47.104 75.434667 77.482667l34.133333 34.133333a34.133333 34.133333 0 0 0 48.128 0 34.133333 34.133333 0 0 0 8.533334-14.336H955.733333V0z" fill="#0BA84A" p-id="48388"></path><path d="M372.394667 648.533333a158.037333 158.037333 0 0 0 154.624-162.133333C527.018667 396.288 372.394667 102.4 372.394667 102.4s-154.282667 293.888-154.282667 383.317333A158.037333 158.037333 0 0 0 372.394667 648.533333z" fill="#0BA84A" p-id="48389"></path></svg>