<?xml version="1.0" standalone="no"?><!DOCTYPE svg PUBLIC "-//W3C//DTD SVG 1.1//EN" "http://www.w3.org/Graphics/SVG/1.1/DTD/svg11.dtd"><svg t="1716464887197" class="icon" viewBox="0 0 1125 1024" version="1.1" xmlns="http://www.w3.org/2000/svg" p-id="4477" xmlns:xlink="http://www.w3.org/1999/xlink" width="219.7265625" height="200"><path d="M713.855461 477.558578L325.538574 250.14527c-10.476063 15.487711-20.749161 30.335305-30.60072 45.448314a126.680734 126.680734 0 0 0-8.305909 16.362018c-4.465207 9.632982-8.056108 19.734342-13.348783 28.883332a31.3189 31.3189 0 0 1-12.833568 11.53772 19.656279 19.656279 0 0 0-8.540098 6.666586Q163.932427 489.533451 75.799232 619.976825c-1.170946 1.717387-2.248216 3.497225-3.668964 5.714216l447.92584 262.291883c64.714277-137.016283 129.147527-273.501738 193.799353-410.424346z" fill="#6DA241" p-id="4478"></path><path d="M719.741416 449.471489c44.870647-74.940538 51.630908-151.941941 8.711838-228.303227C683.395255 141.106788 612.014393 103.04324 520.040495 111.427212 440.947003 118.655852 385.100689 162.605355 348.161249 232.346893c124.010978 72.458133 247.522352 144.635238 371.580167 217.124596zM294.891017 230.145514c8.07172-12.786729 16.159053-24.261999 22.919314-36.471061 34.48826-62.325547 84.99506-105.322681 153.300238-126.009392 145.275355-44.027566 295.734098 46.993962 327.084223 196.921876 14.051351 67.134232 3.122522 130.646338-31.490639 190.083552-7.572117 13.036531-13.864 26.791242-21.186314 41.076782l176.26639 67.134232c7.806306-29.148747 15.612612-57.922791 23.418918-87.149601l38.578764 10.351162-62.138196 231.878514-38.563151-10.273098c6.853937-25.776423 13.598585-51.131305 20.56181-77.235592-17.579801 1.07727-34.347747 2.09209-51.084467 3.122522l-130.037446 8.430811c-14.878819 0.952369-29.742026 2.045252-44.636458 2.622918-4.465207 0.187351-5.651766 2.919558-7.134964 5.995244q-49.226566 101.638105-98.484356 203.276209l-36.424224 75.221564c-0.921144 1.889126-1.935964 3.747027-3.356712 6.463622L24.980179 638.337257l57.766665-87.508691C62.450448 541.757639 58.344331 522.928828 54.737818 504.28737c-5.714216-29.507837-4.808685-59.327926-2.45118-89.132403a648.173202 648.173202 0 0 1 25.229981-136.563517c11.459657-37.891809 30.803684-70.428493 62.450448-94.893456 19.062999-14.722693 40.311764-24.168323 64.526926-26.869306 34.691224-3.856315 67.758736 15.909252 82.387754 50.178935 2.966396 6.978838 4.980423 14.379216 7.962432 23.122279zM102.481186 512.093676c0.733793-1.030432 1.561261-2.107703 2.295054-3.231811q71.193511-107.727023 142.324571-215.454046a18.17308 18.17308 0 0 0 2.638532-5.823505 93.082393 93.082393 0 0 0 1.046045-39.218881c-4.028054-19.968531-13.723486-35.596756-34.691224-41.310972-13.551747-3.684576-26.635116-0.999207-38.922242 5.042874-30.975422 15.206684-50.553638 40.46789-62.013295 72.395682-11.928036 33.208026-19.359639 67.555772-24.808441 102.340672C85.869366 415.592121 82.200403 444.45984 84.308105 473.68665c1.061658 14.988108 2.841495 29.663963 18.251144 38.438251z" fill="#6DA241" p-id="4479"></path><path d="M917.178508 580.102214c-1.701775-0.608892-2.669757-1.01482-3.684576-1.31146q-91.318168-26.1199-182.667561-52.333475c-3.793865-1.092883-5.199 0.078063-6.916387 3.122522-15.237909 27.041044-30.631945 53.988413-45.96353 80.982619-0.874306 1.561261-1.561261 3.122522-2.669757 5.651766h9.914009q68.97652 0.343477 137.921815 0.765018 39.265719 0.234189 78.531438 0.71818c3.122522 0 5.636153 0.171739 6.619748-3.918766 2.685369-11.147405 5.807892-22.169909 8.852351-33.660792zM985.155821 756.805757c1.327072-23.418918 3.013234-46.837836 8.00927-69.819601a191.582363 191.582363 0 0 1 6.245045-20.56181 22.513387 22.513387 0 0 1 3.387937-5.85473c3.934378-5.292675 8.836738-6.245045 13.661035-1.79545a64.277124 64.277124 0 0 1 10.928829 13.161432c10.413612 16.877234 17.39245 35.346954 23.122278 54.206989a336.358114 336.358114 0 0 1 9.148991 36.767701c3.981216 21.623468-11.725072 41.404647-33.723242 43.51235-21.326828 2.02964-40.358602-15.128621-40.795755-36.814539-0.093676-4.262243 0-8.540099 0-12.802342zM1085.341953 943.719949c0 20.9209-16.159053 37.751296-35.79972 38.250899-21.467342 0.530829-39.03153-14.816369-39.03153-36.299323-0.171739-31.069098 2.09209-62.060133 9.992072-92.317375a65.729097 65.729097 0 0 1 6.541684-15.768738c4.199793-7.306702 10.195036-8.134171 16.01854-2.09209a70.584619 70.584619 0 0 1 11.209856 14.94127 297.186071 297.186071 0 0 1 30.72562 88.22687 37.220467 37.220467 0 0 1 0.405928 5.058487z" fill="#6DA241" p-id="4480"></path></svg>