<?xml version="1.0" standalone="no"?><!DOCTYPE svg PUBLIC "-//W3C//DTD SVG 1.1//EN" "http://www.w3.org/Graphics/SVG/1.1/DTD/svg11.dtd"><svg t="1716466178689" class="icon" viewBox="0 0 1024 1024" version="1.1" xmlns="http://www.w3.org/2000/svg" p-id="28314" xmlns:xlink="http://www.w3.org/1999/xlink" width="200" height="200"><path d="M647.786446 488.205751V169.380012c0-70.645955-57.801236-128.447191-128.447191-128.447191h-14.67851c-70.641862 0-128.443098 57.801236-128.443098 128.443097v318.82574C298.224251 534.58673 245.936666 619.673785 245.936666 717.003845c0 146.944733 119.122695 266.063334 266.059241 266.063334 146.944733 0 266.067427-119.118601 266.067427-266.063334 0-97.330061-52.283492-182.417115-130.276888-228.798094z" fill="#F0F0FF" p-id="28315"></path><path d="M668.252856 488.205751V169.380012C668.252856 87.268774 601.454586 20.46641 519.339255 20.46641h-14.67851c-82.111238 0-148.909508 66.79827-148.909508 148.909508v318.82574a20.46641 20.46641 0 0 1 10.003982-17.588833C279.223236 522.073567 225.470256 616.481025 225.470256 717.003845c0 157.996594 128.53315 286.529744 286.525651 286.529745 157.996594 0 286.533838-128.53315 286.533837-286.529745 0-100.522821-53.75298-194.934372-140.280869-246.386927a20.46641 20.46641 0 0 1 10.003981 17.588833zM757.596924 717.003845c0 135.422144-110.17478 245.596924-245.601017 245.596924-135.41805 0-245.59283-110.17478-245.592831-245.596924 0-86.159494 46.086263-167.08368 120.277-211.213354a20.458224 20.458224 0 0 0 10.003982-17.588833v-318.82574C396.684058 109.835038 445.123958 61.399231 504.660745 61.399231h14.67851c59.540881 0 107.980781 48.4399 107.98078 107.980781v318.825739a20.46641 20.46641 0 0 0 10.003982 17.588833C711.510661 549.920165 757.596924 630.840258 757.596924 717.003845z" fill="#6E6E96" p-id="28316"></path><path d="M508.561643 462.880615c-140.522373 0-254.438413 113.91604-254.438413 254.438413 0 140.526466 113.91604 254.438413 254.438413 254.438413 140.526466 0 254.438413-113.911946 254.438413-254.438413 0-140.522373-113.911946-254.438413-254.438413-254.438413z m-20.838899 421.0309c-114.816562 0-207.893703-93.073047-207.893702-207.901889 0-114.820655 93.077141-207.897796 207.893702-207.897796 114.824748 0 207.901889 93.077141 207.901889 207.897796-0.004093 114.828842-93.077141 207.901889-207.901889 207.901889z" fill="#6E6E96" opacity=".12" p-id="28317"></path><path d="M563.166026 573.145447V190.677358c0-27.015662-22.103723-49.119385-49.119385-49.119384s-49.119385 22.103723-49.119385 49.119384v378.800509c-63.87976 18.833191-110.518616 77.886971-110.518615 147.865721 0 85.152547 69.029109 154.181655 154.181655 154.181655 85.148453 0 154.181655-69.029109 154.181655-154.181655-0.004093-65.922308-41.395361-122.168096-99.605925-144.198141z" fill="#FF8585" p-id="28318"></path><path d="M583.632436 573.145447V190.677358c0-38.370426-31.215369-69.585795-69.585795-69.585795s-69.585795 31.215369-69.585795 69.585795v378.800509a20.46641 20.46641 0 0 1 14.678509-19.631381c-73.711823 21.731234-125.197125 90.608892-125.197125 167.497102 0 96.29446 78.345419 174.648066 174.648066 174.648066 96.298554 0 174.648066-78.353605 174.648066-174.648066 0-72.14819-45.337192-137.788061-112.81904-163.342421a20.46641 20.46641 0 0 1 13.213114 19.14428z m58.669012 144.198141c0 73.736383-59.978862 133.715245-133.715245 133.715245-73.73229 0-133.711152-59.978862-133.711152-133.715245 0-58.869583 39.41012-111.599242 95.840106-128.234341a20.46641 20.46641 0 0 0 14.67851-19.63138V190.677358c0-15.800069 12.852906-28.652974 28.652974-28.652974 15.795975 0 28.652974 12.852906 28.652974 28.652974v382.468089a20.474597 20.474597 0 0 0 13.217208 19.140187c51.677686 19.561795 86.384625 69.819112 86.384625 125.057954z" fill="#6E6E96" p-id="28319"></path><path d="M418.538091 650.488012m-81.865642 0a81.865641 81.865641 0 1 0 163.731283 0 81.865641 81.865641 0 1 0-163.731283 0Z" fill="#FFFFFF" opacity=".37" p-id="28320"></path></svg>