<?xml version="1.0" standalone="no"?><!DOCTYPE svg PUBLIC "-//W3C//DTD SVG 1.1//EN" "http://www.w3.org/Graphics/SVG/1.1/DTD/svg11.dtd"><svg t="1716995953292" class="icon" viewBox="0 0 1024 1024" version="1.1" xmlns="http://www.w3.org/2000/svg" p-id="6505" xmlns:xlink="http://www.w3.org/1999/xlink" width="200" height="200"><path d="M1.729139 8.664332l1014.774775 0 0 1014.774775-1014.774775 0 0-1014.774775Z" fill="#718FEF" p-id="6506"></path><path d="M803.48455 221.901409 233.199137 221.901409C215.701114 221.901409 201.516976 236.194014 201.516976 253.824993L201.516976 764.512427C201.516976 782.133888 215.701114 796.410503 233.199137 796.410503L803.48455 796.410503C820.982574 796.410503 835.166712 782.133888 835.166712 764.512427L835.166712 253.82584C835.166712 236.194014 820.982574 221.901409 803.48455 221.901409L803.48455 221.901409ZM740.11626 700.665283 296.566644 700.665283 296.566644 541.08797 391.610746 445.325937 550.025595 604.92004 645.069697 509.151609 740.11626 604.92004 740.11626 700.665258 740.11626 700.665283ZM676.751858 445.326752C641.755811 445.326752 613.390711 416.751135 613.390711 381.495497 613.390711 346.227065 641.755891 317.661045 676.751858 317.661045 711.747826 317.661045 740.11618 346.227065 740.11618 381.495497 740.11626 416.751135 711.747906 445.326752 676.751858 445.326752L676.751858 445.326752Z" fill="#FFFFFF" p-id="6507"></path></svg>