<?xml version="1.0" standalone="no"?><!DOCTYPE svg PUBLIC "-//W3C//DTD SVG 1.1//EN" "http://www.w3.org/Graphics/SVG/1.1/DTD/svg11.dtd"><svg t="1716469672014" class="icon" viewBox="0 0 1024 1024" version="1.1" xmlns="http://www.w3.org/2000/svg" p-id="30708" xmlns:xlink="http://www.w3.org/1999/xlink" width="200" height="200"><path d="M511.984028 988.506066c-57.855113 0-112.249567-22.538648-153.067591-63.445407-40.906759-40.906759-63.445407-95.212478-63.445408-153.067591 0-75.42461 38.954593-144.815251 102.57747-184.124784v-438.350086c0-30.436049 11.890468-59.008666 33.364298-80.571231 21.562565-21.562565 50.135182-33.453033 80.571231-33.453033s59.008666 11.890468 80.57123 33.364298c21.562565 21.562565 33.364298 50.135182 33.364298 80.571231v17.924436h10.82565c16.415945 0 31.767071 6.388908 43.3026 17.924437s17.924437 26.97539 17.924437 43.3026c0 16.415945-6.388908 31.767071-17.924437 43.3026-3.726863 3.726863-7.8974 6.921317-12.334142 9.583362 4.436742 2.57331 8.607279 5.856499 12.334142 9.583362 11.535529 11.535529 17.924437 26.97539 17.924437 43.3026 0 16.415945-6.388908 31.767071-17.924437 43.302599s-26.97539 17.924437-43.3026 17.924437h-10.82565v192.110919c63.622877 39.487002 102.57747 108.877643 102.57747 184.302253 0 57.855113-22.538648 112.249567-63.445407 153.067591-40.818024 40.906759-95.212478 63.445407-153.067591 63.445407z m0-908.644714c-18.545581 0-36.026343 7.276256-49.159099 20.409012-13.132756 13.132756-20.409012 30.613518-20.409012 49.159099V599.847487l0.443674 13.753899-12.156672 6.477643c-55.991681 30.169844-90.864471 88.291161-90.864472 151.914039 0 94.946274 77.199307 172.145581 172.145581 172.14558s172.145581-77.199307 172.14558-172.14558c0-63.622877-34.87279-121.744194-90.953206-151.825304l-12.156672-6.477643 0.443674-13.753899V351.389948h55.193067c4.525477 0 8.784749-1.774697 11.979203-4.969151 3.194454-3.194454 4.969151-7.453726 4.969151-11.979203s-1.774697-8.784749-4.969151-11.979202c-3.194454-3.194454-7.453726-4.969151-11.979203-4.969151h-55.193067v-71.963952h55.193067c4.525477 0 8.784749-1.774697 11.979203-4.96915 3.194454-3.194454 4.969151-7.453726 4.969151-11.979203s-1.774697-8.784749-4.969151-11.979203c-3.194454-3.194454-7.453726-4.969151-11.979203-4.969151h-55.193067v-62.291854c0-18.545581-7.276256-36.026343-20.409012-49.159099-13.044021-13.044021-30.436049-20.320277-49.070364-20.320277z" fill="#FF4546" p-id="30709"></path><path d="M552.535847 645.723397c56.257886 15.528596 97.608319 67.083536 97.608319 128.310572 0 73.472444-59.629809 133.102253-133.102253 133.102253s-133.102253-59.629809-133.102253-133.102253c0-61.227036 41.350433-112.781976 97.608319-128.310572V221.393414c0-9.405893 3.726863-18.456846 10.381976-25.111958 6.655113-6.655113 15.706066-10.381976 25.111958-10.381976s18.456846 3.726863 25.111959 10.381976c6.655113 6.655113 10.381976 15.706066 10.381975 25.111958v424.329983z" fill="#FF4546" p-id="30710"></path></svg>