<?xml version="1.0" standalone="no"?><!DOCTYPE svg PUBLIC "-//W3C//DTD SVG 1.1//EN" "http://www.w3.org/Graphics/SVG/1.1/DTD/svg11.dtd"><svg t="1716466061039" class="icon" viewBox="0 0 1024 1024" version="1.1" xmlns="http://www.w3.org/2000/svg" p-id="23390" xmlns:xlink="http://www.w3.org/1999/xlink" width="200" height="200"><path d="M494.882752 645.264936c-73.687838 0-131.378777-49.919397-131.378777-113.623355 0-53.748442 53.946985-113.651719 131.378777-113.651719 66.795557 0 133.222391 40.843143 144.993159 89.174196a13.330748 13.330748 0 0 1-25.895688 6.296652c-8.934438-36.645376-64.58322-68.837714-119.097471-68.837715-61.718528 0-104.717281 45.835083-104.717281 86.990223 0 42.715121 39.198072 86.905133 104.717281 86.905132 62.626153 0 110.957206-41.268593 121.508351-81.11902a13.330748 13.330748 0 0 1 25.725508 6.80719c-15.202726 57.634213-78.509598 101.058416-147.233859 101.058416z" fill="#F15A25" p-id="23391"></path><path d="M446.721879 631.678919a13.387475 13.387475 0 0 1-10.579509-21.442651c0.226906-0.25527 25.441875-34.262859 25.441875-81.969919 0-47.253248-24.789519-77.403429-25.044788-77.715425a13.330748 13.330748 0 0 1 20.336481-17.21652c1.247985 1.474891 31.369803 37.467911 31.369803 94.960308 0 57.066947-29.696369 96.491926-30.972717 98.165361a13.188932 13.188932 0 0 1-10.551145 5.218846zM587.659087 468.958701a13.330748 13.330748 0 0 1-11.572224-6.665374c-5.303936-9.104617-24.222253-35.454117-41.41041-36.900645-21.102291-1.645071-36.106473 12.196216-36.305016 12.338033a13.302385 13.302385 0 1 1-18.7765-18.918317c0.992715-0.935989 23.371354-22.690635 57.26549-19.939396 34.177769 2.807966 59.562917 45.29618 62.34252 50.174667a13.330748 13.330748 0 0 1-11.54386 19.911032zM503.30665 552.204969s-4.623217 15.004182 17.3867 24.817882c17.613606 7.799906 39.793701-1.247985 44.445281-10.466055 4.793397-9.671883-31.795252-25.158242-31.795252-25.158242s-22.009916-6.97737-30.036729 10.806415z" fill="#F15A25" p-id="23392"></path><path d="M422.10254 513.403983m-16.280531 0a16.280531 16.280531 0 1 0 32.561062 0 16.280531 16.280531 0 1 0-32.561062 0Z" fill="#F15A25" p-id="23393"></path><path d="M675.556934 592.934659a20.875384 20.875384 0 0 1-13.983104-5.474116l-40.048971-36.163199a13.330748 13.330748 0 0 1 17.868876-19.769216l24.874608 22.520455-4.509763-15.004182a59.364374 59.364374 0 0 1-0.680719-32.107249l2.495969-9.870426-24.137163 22.151732a13.330748 13.330748 0 1 1-18.039055-19.655762l44.048196-40.332604a18.577958 18.577958 0 0 1 30.632357 18.351051l-9.21807 35.964657c-1.503255 5.871202-1.361438 12.026037 0.397086 17.783785l10.466055 34.518128a20.705205 20.705205 0 0 1-8.820984 23.768441 21.556103 21.556103 0 0 1-11.345318 3.318505z" fill="#F15A25" p-id="23394"></path><path d="M299.459657 842.588372h-0.652356a63.930864 63.930864 0 0 1-55.904052-33.32687l-9.8137-17.727059a17.471789 17.471789 0 0 1-2.15561-9.8137l14.748913-214.539955a804.269562 804.269562 0 0 0 0-110.30485l-14.748913-214.568318a17.698695 17.698695 0 0 1 2.15561-9.8137l9.8137-17.727059a63.817411 63.817411 0 0 1 55.904052-33.32687c22.407002 0.198543 41.722405 10.210786 53.833532 28.022935a63.732321 63.732321 0 0 1 52.585547-28.022935h0.652356a63.817411 63.817411 0 0 1 53.237903 28.022935 63.703958 63.703958 0 0 1 52.585546-28.022935 63.477052 63.477052 0 0 1 53.861896 28.022935 63.817411 63.817411 0 0 1 52.61391-28.022935c22.095006 0.198543 41.240229 9.89879 53.436445 27.342215a63.618868 63.618868 0 0 1 52.160098-27.342215h0.709082a63.817411 63.817411 0 0 1 55.847326 32.249065l10.352602 17.897239c1.786888 3.034872 2.552696 6.580284 2.32579 10.068969l-14.777276 216.979199a800.128521 800.128521 0 0 0 0.056727 110.021217l14.748913 213.660693a17.301609 17.301609 0 0 1-2.32579 10.068969l-10.23915 17.727059c-11.827494 20.506661-32.646151 32.135612-56.669861 32.305791a63.789048 63.789048 0 0 1-52.131734-27.257125 63.760685 63.760685 0 0 1-52.727363 27.398942h-0.709083a63.874138 63.874138 0 0 1-52.61391-28.022935 63.817411 63.817411 0 0 1-53.181176 27.881118h-0.680719a63.874138 63.874138 0 0 1-52.585547-27.909481 63.874138 63.874138 0 0 1-53.237903 27.909481h-0.652355a63.930864 63.930864 0 0 1-52.585547-27.881118 63.817411 63.817411 0 0 1-53.237903 28.051298z m-32.759604-63.675595l7.261003 13.132205c5.190483 9.274797 14.578733 14.862366 25.186605 14.97582h0.311996c10.466055 0 19.825942-5.389026 25.101515-14.522007l10.380966-17.897238a17.953965 17.953965 0 0 1 15.571448-8.877711 17.727059 17.727059 0 0 1 20.166302 8.565714l9.700247 17.500153c5.133756 9.359887 14.63546 14.947456 25.300058 15.032546h0.255269c10.579509 0 19.996122-5.360663 25.271695-14.55037l10.267513-17.698696a18.351051 18.351051 0 0 1 15.599811-8.877711 17.698695 17.698695 0 0 1 20.137939 8.594078l9.671883 17.471789c5.162119 9.359887 14.63546 14.947456 25.271695 15.032546h0.283633c10.579509 0 20.024485-5.360663 25.300058-14.55037l10.267513-17.698695c3.290142-5.757749 9.076254-8.367172 15.599811-8.877711a17.755422 17.755422 0 0 1 20.166302 8.594078l9.785337 17.698696c5.162119 9.274797 14.493643 14.862366 25.129878 14.975819 10.154059 0.141816 20.137939-5.332299 25.441875-14.522007l10.352602-17.897238a17.755422 17.755422 0 0 1 14.63546-8.820985 17.727059 17.727059 0 0 1 20.223028 8.537352l9.671883 17.471789c5.190483 9.359887 14.607096 14.947456 25.271695 15.032546h0.311996c10.551145 0 19.967759-5.360663 25.271695-14.55037l7.516273-12.962025-14.408553-208.271668a848.374484 848.374484 0 0 1-0.056727-114.87134l14.46528-211.533446-7.629726-13.217295c-5.332299-9.189707-14.834003-14.068194-25.441874-14.46528a28.732017 28.732017 0 0 0-25.129879 14.947456l-9.955516 17.840512a17.641969 17.641969 0 0 1-20.223029 8.565715 17.698695 17.698695 0 0 1-14.635459-8.849348l-10.352603-17.897238c-5.332299-9.189707-15.060909-14.068194-25.441874-14.46528a28.703653 28.703653 0 0 0-25.129879 14.947456l-9.785336 17.698695a17.727059 17.727059 0 0 1-20.166302 8.594078 17.017976 17.017976 0 0 1-15.599812-8.877711l-10.380965-17.897238c-5.332299-9.189707-14.38019-14.068194-25.441875-14.46528a28.76038 28.76038 0 0 0-25.129878 14.947456l-9.8137 17.698695a17.641969 17.641969 0 0 1-20.137939 8.594078 17.868875 17.868875 0 0 1-15.599811-8.877711l-10.380966-17.897238a28.67529 28.67529 0 0 0-25.158241-14.46528H405.595103c-10.607872 0.08509-20.024485 5.672659-25.186605 14.947456l-9.8137 17.727058a17.755422 17.755422 0 0 1-20.166302 8.565715 17.471789 17.471789 0 0 1-15.571448-8.877711l-10.380966-17.897238a28.646927 28.646927 0 0 0-25.101515-14.46528h-0.340359c-10.607872 0.08509-19.967759 5.672659-25.158242 14.947456l-7.175913 13.132205 14.436916 209.349472a848.346121 848.346121 0 0 1 0 115.183337l-14.436916 209.292745z" fill="#0031CB" p-id="23395"></path><path d="M762.518793 328.900756H264.714622a17.783785 17.783785 0 0 1 0-35.539207h497.832535a17.755422 17.755422 0 1 1-0.028364 35.539207zM762.518793 730.638451H264.714622a17.755422 17.755422 0 1 1 0-35.510844h497.832535a17.727059 17.727059 0 1 1-0.028364 35.510844z" fill="#0031CB" p-id="23396"></path><path d="M346.741268 492.727142m-14.55037 0a14.55037 14.55037 0 1 0 29.10074 0 14.55037 14.55037 0 1 0-29.10074 0Z" fill="#F15A25" p-id="23397"></path><path d="M355.19353 401.340609m-23.030995 0a23.030995 23.030995 0 1 0 46.061989 0 23.030995 23.030995 0 1 0-46.061989 0Z" fill="#F15A25" p-id="23398"></path></svg>